<svg id="IG_link" data-name="IG link" xmlns="http://www.w3.org/2000/svg" xmlns:xlink="http://www.w3.org/1999/xlink" width="25.422" height="25.422" viewBox="0 0 25.422 25.422">
  <defs>
    <clipPath id="clip-path">
      <rect id="사각형_6" data-name="사각형 6" width="25.422" height="25.422" fill="none"/>
    </clipPath>
  </defs>
  <g id="그룹_10" data-name="그룹 10" clip-path="url(#clip-path)">
    <path id="패스_24" data-name="패스 24" d="M21.185,0H4.237A4.237,4.237,0,0,0,0,4.237V21.185a4.237,4.237,0,0,0,4.237,4.237H21.185a4.237,4.237,0,0,0,4.237-4.237V4.237A4.237,4.237,0,0,0,21.185,0ZM23.3,21.185h0A2.118,2.118,0,0,1,21.185,23.3H4.237a2.118,2.118,0,0,1-2.118-2.118V4.237A2.118,2.118,0,0,1,4.237,2.119H21.185A2.118,2.118,0,0,1,23.3,4.237Z" transform="translate(0 0)" fill="#070303"/>
    <path id="패스_25" data-name="패스 25" d="M33.132,26.777a6.355,6.355,0,1,0,4.494,1.861,6.356,6.356,0,0,0-4.494-1.861m0,10.592a4.237,4.237,0,1,1,3-1.241,4.236,4.236,0,0,1-3,1.241" transform="translate(-20.421 -20.421)" fill="#070303"/>
    <path id="패스_26" data-name="패스 26" d="M79.045,19.44a1.589,1.589,0,1,1-1.589-1.589,1.589,1.589,0,0,1,1.589,1.589" transform="translate(-57.86 -13.614)" fill="#070303"/>
  </g>
</svg>
